<?xml version="1.0" standalone="no"?>
<!DOCTYPE svg PUBLIC "-//W3C//DTD SVG 20010904//EN"
 "http://www.w3.org/TR/2001/REC-SVG-20010904/DTD/svg10.dtd">
<svg version="1.0" xmlns="http://www.w3.org/2000/svg"
 width="300.000000pt" height="129.000000pt" viewBox="0 0 300.000000 129.000000"
 preserveAspectRatio="xMidYMid meet">
<g transform="translate(0.000000,129.000000) scale(0.100000,-0.100000)"
fill="#bb9d52" stroke="none">
<path d="M1063 925 c-74 -20 -140 -56 -219 -116 -138 -106 -274 -169 -365
-169 -104 0 -185 82 -149 151 13 23 65 26 116 4 83 -34 95 37 15 90 -94 63
-166 51 -260 -42 l-64 -64 5 -68 c3 -41 14 -87 27 -114 34 -70 113 -142 205
-187 137 -67 181 -75 426 -75 190 1 224 4 295 23 133 37 220 85 303 168 l72
74 73 -74 c82 -83 169 -131 302 -168 71 -19 105 -22 295 -23 245 0 289 8 426
75 146 71 225 174 232 301 l4 65 -51 56 c-86 95 -168 115 -256 64 -47 -28 -65
-51 -65 -84 0 -28 24 -34 64 -17 43 18 98 19 114 3 36 -36 -3 -114 -73 -144
-95 -39 -257 15 -413 138 -120 95 -249 148 -358 148 -90 0 -161 -29 -235 -97
l-59 -55 -50 46 c-97 91 -235 126 -357 91z"/>
</g>
</svg>

